<svg xmlns="http://www.w3.org/2000/svg" viewBox="0 0 1254 1254" width="1254" height="1254">
  <rect width="1254" height="1254" fill="#000"/>
  <g transform="translate(188,188) scale(0.7)">
  <path fill="#EA3B32" d="M402,551C559,551 715,551 872,551C876,551 880,552 883,554C908,568 931,585 952,605C964,618 975,631 986,647L442,647C438,647 433,646 430,644C391,627 357,605 328,573C322,567 317,559 310,551Z"/>
  <path fill="#EA3B32" d="M525,1089C492,1085 462,1075 432,1065C403,1055 375,1043 349,1029C345,1027 343,1027 340,1030C327,1043 314,1057 301,1070C300,1071 298,1073 296,1073C279,1073 261,1073 244,1073C243,1073 242,1072 241,1072L241,994C243,994 245,994 247,994C325,994 403,994 482,994C484,994 487,995 489,996C521,1016 557,1027 595,1030C630,1033 665,1030 700,1019C715,1013 730,1006 744,996C745,995 748,994 750,994C812,994 874,994 936,994C937,994 937,994 939,994C934,999 929,1003 924,1007C891,1034 854,1055 813,1070C793,1077 772,1082 752,1088C747,1089 742,1089 738,1089C668,1089 598,1089 528,1089Z"/>
  <path fill="#EA3B32" d="M864,158C868,162 871,161 874,157C885,146 897,134 908,123C909,122 911,121 912,121C931,121 950,121 970,121L970,204C968,204 967,204 965,204C898,204 831,204 765,204C762,204 760,203 758,201C703,162 643,155 579,171C558,177 540,187 523,201C521,203 519,204 517,204C455,204 395,204 335,204C333,204 333,204 332,204C334,201 335,200 337,198C367,167 404,144 445,128C466,120 488,114 510,108C516,106 522,106 528,106C588,106 649,106 710,107C722,107 734,111 746,114C787,124 826,139 864,158Z"/>
  <path fill="#111" d="M661,471C695,482 729,493 763,505C789,514 814,524 844,537L310,537C297,532 263,447 285,440C372,440 562,440 601,450Z"/>
  <path fill="#111" d="M845,660L988,660C996,665 1023,749 1015,758L748,758C720,751 476,660 476,660Z"/>
  <path fill="#EA3B32" d="M388,426C302,426 258,363 268,329C313,329 470,329 475,333C480,362 517,404 544,423Z"/>
  <path fill="#EA3B32" d="M805,868L1025,773C1027,805 1015,868 812,867Z"/>
  <path fill="#111" d="M799,980L764,980C771,970 803,895 816,883C864,883 1004,882 1008,889C996,921 957,976 946,980Z"/>
  <path fill="#111" d="M466,315L272,315C268,309 290,259 313,224C325,218 497,218 493,234C472,282 473,308 466,315Z"/>
  <path fill="#111" d="M238,912L238,888C244,882 318,882 363,882C375,888 424,945 457,975C462,980 387,980 239,974Z"/>
  <path fill="#111" d="M924,218C938,218 970,225 970,305C960,315 861,315 850,309C820,261 780,221 780,218Z"/>
  <path fill="#EA3B32" d="M281,772C305,772 311,775 361,868L237,868C237,836 235,772 235,772Z"/>
  <path fill="#EA3B32" d="M917,329L970,329L970,426L904,423C877,361 862,329 862,329Z"/>
  </g>
</svg>
